<?xml version="1.0" encoding="UTF-8" standalone="no"?>
<!-- Created with Inkscape (http://www.inkscape.org/) -->

<svg
   width="203.52121mm"
   height="69.434723mm"
   viewBox="0 0 203.52121 69.434723"
   version="1.1"
   id="svg1569"
   xmlns="http://www.w3.org/2000/svg"
   xmlns:svg="http://www.w3.org/2000/svg">
  <defs
     id="defs1566">
    <rect
       x="132.61356"
       y="602.75739"
       width="646.24164"
       height="105.18316"
       id="rect3149" />
  </defs>
  <g
     id="layer1"
     transform="translate(-59.192778,-53.549672)">
    <path
       id="rect2831"
       style="fill:#000000;fill-opacity:1;stroke:#6b70aa;stroke-width:0.0979291;stroke-linejoin:round;stroke-dasharray:none;stroke-opacity:1"
       d="m 112.20896,53.59864 c -8.14753,0 -14.706732,6.109223 -14.706732,13.697819 v 41.941161 c 0,7.58859 6.559202,13.69782 14.706732,13.69782 h 97.48881 c 8.14754,0 14.70675,-6.10923 14.70675,-13.69782 V 67.296459 c 0,-7.588596 -6.55921,-13.697819 -14.70675,-13.697819 z m 48.74456,7.560207 a 29.104945,27.108263 0 0 1 29.10487,27.108191 29.104945,27.108263 0 0 1 -29.10487,27.108202 29.104945,27.108263 0 0 1 -29.10517,-27.108202 29.104945,27.108263 0 0 1 29.10517,-27.108191 z" />
    <g
       aria-label="VISIONS OF JEREMIE"
       transform="matrix(0.3201146,0,0,0.28486472,14.599704,-95.331069)"
       id="text3147"
       style="font-weight:bold;font-size:64px;-inkscape-font-specification:'sans-serif Bold';direction:rtl;white-space:pre;shape-inside:url(#rect3149);display:inline;fill:#b87c00;fill-opacity:1;stroke:#6b70aa;stroke-width:0;stroke-linejoin:round">
      <path
         d="m 180.90347,615.29382 -15.552,45.696 h -10.56 l -15.488,-45.696 h 9.792 l 8.576,27.2 q 0.256,0.704 0.704,2.624 0.512,1.856 1.024,3.968 0.512,2.048 0.704,3.456 0.192,-1.408 0.64,-3.456 0.512,-2.112 1.024,-3.968 0.512,-1.92 0.704,-2.624 l 8.64,-27.2 z"
         style="fill:#b87c00;fill-opacity:1;stroke:#151e79"
         id="path6383" />
      <path
         d="m 203.75144,660.98982 h -20.8 v -5.504 l 5.568,-2.56 v -29.568 l -5.568,-2.56 v -5.504 h 20.8 v 5.504 l -5.568,2.56 v 29.568 l 5.568,2.56 z"
         style="fill:#b87c00;fill-opacity:1;stroke:#151e79"
         id="path6385" />
      <path
         d="m 238.50344,648.31782 q 0,6.08 -4.416,9.728 -4.352,3.584 -12.416,3.584 -7.232,0 -12.928,-2.752 v -9.024 q 3.264,1.408 6.72,2.624 3.52,1.152 6.976,1.152 3.584,0 5.056,-1.344 1.536,-1.408 1.536,-3.52 0,-1.728 -1.216,-2.944 -1.152,-1.216 -3.136,-2.24 -1.984,-1.088 -4.544,-2.304 -1.6,-0.768 -3.456,-1.792 -1.856,-1.088 -3.584,-2.624 -1.664,-1.6 -2.752,-3.84 -1.088,-2.24 -1.088,-5.376 0,-6.144 4.16,-9.536 4.16,-3.456 11.328,-3.456 3.584,0 6.784,0.832 3.264,0.832 6.784,2.368 l -3.136,7.552 q -3.136,-1.28 -5.632,-1.984 -2.496,-0.704 -5.12,-0.704 -2.752,0 -4.224,1.28 -1.472,1.28 -1.472,3.328 0,2.432 2.176,3.84 2.176,1.408 6.464,3.456 3.52,1.664 5.952,3.456 2.496,1.792 3.84,4.224 1.344,2.432 1.344,6.016 z"
         style="fill:#b87c00;fill-opacity:1;stroke:#151e79"
         id="path6387" />
      <path
         d="m 263.91148,660.98982 h -20.8 v -5.504 l 5.568,-2.56 v -29.568 l -5.568,-2.56 v -5.504 h 20.8 v 5.504 l -5.568,2.56 v 29.568 l 5.568,2.56 z"
         style="fill:#b87c00;fill-opacity:1;stroke:#151e79"
         id="path6389" />
      <path
         d="m 312.99947,638.07782 q 0,7.104 -2.368,12.416 -2.304,5.248 -7.104,8.192 -4.8,2.944 -12.288,2.944 -7.424,0 -12.288,-2.944 -4.8,-2.944 -7.168,-8.256 -2.304,-5.312 -2.304,-12.416 0,-7.04 2.304,-12.288 2.368,-5.312 7.168,-8.192 4.864,-2.944 12.352,-2.944 7.424,0 12.224,2.944 4.864,2.88 7.168,8.192 2.304,5.248 2.304,12.352 z m -33.216,0 q 0,7.168 2.688,11.264 2.752,4.032 8.768,4.032 6.144,0 8.768,-4.032 2.688,-4.096 2.688,-11.264 0,-7.168 -2.688,-11.264 -2.624,-4.096 -8.704,-4.096 -6.08,0 -8.832,4.096 -2.688,4.096 -2.688,11.264 z"
         style="fill:#b87c00;fill-opacity:1;stroke:#151e79"
         id="path6391" />
      <path
         d="m 362.8555,660.98982 h -12.288 l -19.904,-34.56 h -0.256 q 0.128,3.264 0.256,6.528 0.192,3.264 0.32,6.528 v 21.504 h -8.64 v -45.696 h 12.224 l 19.84,34.24 h 0.192 q -0.064,-3.2 -0.192,-6.336 -0.128,-3.136 -0.256,-6.272 v -21.632 h 8.704 z"
         style="fill:#b87c00;fill-opacity:1;stroke:#151e79"
         id="path6393" />
      <path
         d="m 401.31948,648.31782 q 0,6.08 -4.416,9.728 -4.352,3.584 -12.416,3.584 -7.232,0 -12.928,-2.752 v -9.024 q 3.264,1.408 6.72,2.624 3.52,1.152 6.976,1.152 3.584,0 5.056,-1.344 1.536,-1.408 1.536,-3.52 0,-1.728 -1.216,-2.944 -1.152,-1.216 -3.136,-2.24 -1.984,-1.088 -4.544,-2.304 -1.6,-0.768 -3.456,-1.792 -1.856,-1.088 -3.584,-2.624 -1.664,-1.6 -2.752,-3.84 -1.088,-2.24 -1.088,-5.376 0,-6.144 4.16,-9.536 4.16,-3.456 11.328,-3.456 3.584,0 6.784,0.832 3.264,0.832 6.784,2.368 l -3.136,7.552 q -3.136,-1.28 -5.632,-1.984 -2.496,-0.704 -5.12,-0.704 -2.752,0 -4.224,1.28 -1.472,1.28 -1.472,3.328 0,2.432 2.176,3.84 2.176,1.408 6.464,3.456 3.52,1.664 5.952,3.456 2.496,1.792 3.84,4.224 1.344,2.432 1.344,6.016 z"
         style="fill:#b87c00;fill-opacity:1;stroke:#151e79"
         id="path6395" />
      <path
         d="m 467.55953,638.07782 q 0,7.104 -2.368,12.416 -2.304,5.248 -7.104,8.192 -4.8,2.944 -12.288,2.944 -7.424,0 -12.288,-2.944 -4.8,-2.944 -7.168,-8.256 -2.304,-5.312 -2.304,-12.416 0,-7.04 2.304,-12.288 2.368,-5.312 7.168,-8.192 4.864,-2.944 12.352,-2.944 7.424,0 12.224,2.944 4.864,2.88 7.168,8.192 2.304,5.248 2.304,12.352 z m -33.216,0 q 0,7.168 2.688,11.264 2.752,4.032 8.768,4.032 6.144,0 8.768,-4.032 2.688,-4.096 2.688,-11.264 0,-7.168 -2.688,-11.264 -2.624,-4.096 -8.704,-4.096 -6.08,0 -8.832,4.096 -2.688,4.096 -2.688,11.264 z"
         style="fill:#b87c00;fill-opacity:1;stroke:#151e79"
         id="path6397" />
      <path
         d="m 486.43955,660.98982 h -9.536 v -45.696 h 26.176 v 7.936 h -16.64 v 11.776 h 15.488 v 7.936 h -15.488 z"
         style="fill:#b87c00;fill-opacity:1;stroke:#151e79"
         id="path6399" />
      <path
         d="m 523.87956,674.42982 q -1.856,0 -3.264,-0.256 -1.408,-0.192 -2.432,-0.448 v -8.064 q 1.024,0.256 2.176,0.448 1.088,0.192 2.368,0.192 1.664,0 3.008,-0.64 1.408,-0.64 2.176,-2.432 0.768,-1.792 0.768,-5.12 v -42.816 h 9.664 v 42.752 q 0,5.888 -1.856,9.472 -1.792,3.648 -5.056,5.248 -3.264,1.664 -7.552,1.664 z"
         style="fill:#b87c00;fill-opacity:1;stroke:#151e79"
         id="path6401" />
      <path
         d="m 576.16752,660.98982 h -26.304 v -45.696 h 26.304 v 7.936 h -16.64 v 10.048 h 15.488 v 7.936 h -15.488 v 11.776 h 16.64 z"
         style="fill:#b87c00;fill-opacity:1;stroke:#151e79"
         id="path6403" />
      <path
         d="m 599.39948,615.29382 q 17.856,0 17.856,13.312 0,4.672 -2.368,7.616 -2.368,2.944 -5.888,4.608 l 12.992,20.16 h -11.2 l -10.176,-17.536 h -5.44 v 17.536 h -9.792 v -45.696 z m -0.192,7.616 h -4.032 v 12.992 h 4.032 q 3.904,0 6.016,-1.6 2.112,-1.6 2.112,-5.248 0,-3.072 -1.984,-4.608 -1.92,-1.536 -6.144,-1.536 z"
         style="fill:#b87c00;fill-opacity:1;stroke:#151e79"
         id="path6405" />
      <path
         d="m 653.99149,660.98982 h -26.304 v -45.696 h 26.304 v 7.936 h -16.64 v 10.048 h 15.488 v 7.936 h -15.488 v 11.776 h 16.64 z"
         style="fill:#b87c00;fill-opacity:1;stroke:#151e79"
         id="path6407" />
      <path
         d="m 682.85546,660.98982 -11.008,-35.84 h -0.256 q 0.064,1.28 0.192,3.84 0.128,2.56 0.256,5.504 0.128,2.88 0.128,5.248 v 21.248 h -8.64 v -45.696 h 13.184 l 10.816,34.944 h 0.192 l 11.456,-34.944 h 13.184 v 45.696 h -9.024 v -21.632 q 0,-2.176 0.064,-4.992 0.128,-2.816 0.192,-5.312 0.128,-2.56 0.192,-3.84 h -0.256 l -11.776,35.776 z"
         style="fill:#b87c00;fill-opacity:1;stroke:#151e79"
         id="path6409" />
      <path
         d="m 740.96751,660.98982 h -20.8 v -5.504 l 5.568,-2.56 v -29.568 l -5.568,-2.56 v -5.504 h 20.8 v 5.504 l -5.568,2.56 v 29.568 l 5.568,2.56 z"
         style="fill:#b87c00;fill-opacity:1;stroke:#151e79"
         id="path6411" />
      <path
         d="m 775.0795,660.98982 h -26.304 v -45.696 h 26.304 v 7.936 h -16.64 v 10.048 h 15.488 v 7.936 h -15.488 v 11.776 h 16.64 z"
         style="fill:#b87c00;fill-opacity:1;stroke:#151e79"
         id="path6413" />
    </g>
  </g>
</svg>
