<?xml version="1.0" encoding="UTF-8" standalone="no"?>
<!-- Created with Inkscape (http://www.inkscape.org/) -->

<svg
   width="262.84277mm"
   height="176.08942mm"
   viewBox="0 0 262.84277 176.08942"
   version="1.1"
   id="svg5"
   xmlns="http://www.w3.org/2000/svg"
   xmlns:svg="http://www.w3.org/2000/svg">
  <defs
     id="defs2" />
  <g
     id="layer1"
     transform="translate(-26.515229,-29.51763)">
    <g
       id="g8000">
      <path
         id="rect234"
         style="fill:#fca311;fill-opacity:1;stroke:#000000;stroke-width:4.257;stroke-linejoin:round;stroke-dasharray:none;stroke-opacity:1"
         d="m 174.83481,31.64613 c -26.16923,9.42e-4 -50.91139,11.928785 -67.21141,32.40164 H 82.069409 74.230611 c 0.203576,-0.288462 0.323495,-0.640719 0.323495,-1.02216 v -2.236556 c 0,-0.981248 -0.79022,-1.770951 -1.771468,-1.770951 H 55.054004 c -0.981249,0 -1.770951,0.789703 -1.770951,1.770951 v 2.236556 c 0,0.445155 0.16275,0.85065 0.432015,1.16117 C 39.599018,65.583102 28.64373,77.424607 28.64373,91.919971 V 143.2047 c 0,15.4411 12.431093,27.87168 27.8722,27.87168 h 51.10696 c 16.30001,20.47319 41.04243,32.40125 67.21192,32.40216 26.1693,-0.001 50.91149,-11.92911 67.2114,-32.40216 h 17.31109 c 15.4411,0 27.8722,-12.43058 27.8722,-27.87168 V 91.919971 c 0,-15.441108 -12.4311,-27.872201 -27.8722,-27.872201 H 242.04517 C 225.74539,43.575203 201.00366,31.647391 174.83481,31.64613 Z" />
      <g
         aria-label="JEREMYEN"
         id="text1015"
         style="font-weight:bold;font-size:45.8611px;-inkscape-font-specification:'sans-serif, Bold';direction:rtl;stroke:#8d1d6d;stroke-width:0;stroke-linejoin:round">
        <path
           d="m 46.608865,138.75017 q -1.329972,0 -2.338916,-0.18344 -1.008944,-0.13759 -1.742722,-0.32103 v -5.7785 q 0.733778,0.18344 1.559277,0.32103 0.779639,0.13758 1.696861,0.13758 1.192389,0 2.155472,-0.45861 1.008944,-0.45861 1.559277,-1.74272 0.550333,-1.28411 0.550333,-3.66889 V 96.374514 h 6.925026 v 30.635216 q 0,4.21922 -1.329972,6.78744 -1.28411,2.61408 -3.623026,3.76061 -2.338916,1.19239 -5.41161,1.19239 z"
           id="path9514" />
        <path
           d="M 84.077355,129.11934 H 65.228443 V 96.374514 h 18.848912 v 5.686776 H 72.153469 v 7.20019 h 11.098386 v 5.68678 H 72.153469 v 8.43844 h 11.923886 z"
           id="path9516" />
        <path
           d="m 100.72491,96.374514 q 12.79525,0 12.79525,9.539106 0,3.34786 -1.69686,5.45747 -1.69687,2.10961 -4.21923,3.302 l 9.30981,14.44625 h -8.0257 l -7.29191,-12.56594 h -3.898193 v 12.56594 H 90.681328 V 96.374514 Z m -0.13758,5.457466 h -2.889253 v 9.30981 h 2.889253 q 2.79752,0 4.31094,-1.14653 1.51342,-1.14653 1.51342,-3.76061 0,-2.20133 -1.4217,-3.302 -1.37583,-1.10067 -4.40266,-1.10067 z"
           id="path9518" />
        <path
           d="M 139.84443,129.11934 H 120.99552 V 96.374514 h 18.84891 v 5.686776 h -11.92388 v 7.20019 h 11.09838 v 5.68678 h -11.09838 v 8.43844 h 11.92388 z"
           id="path9520" />
        <path
           d="m 160.52776,129.11934 -7.8881,-25.68222 h -0.18345 q 0.0459,0.91723 0.13758,2.75167 0.0917,1.83444 0.18345,3.94405 0.0917,2.06375 0.0917,3.76061 v 15.22589 h -6.19125 V 96.374514 h 9.44739 l 7.75052,25.040156 h 0.13759 l 8.20913,-25.040156 h 9.44739 v 32.744826 h -6.46641 v -15.50105 q 0,-1.55928 0.0459,-3.57717 0.0917,-2.01789 0.13758,-3.80647 0.0917,-1.83444 0.13758,-2.75167 h -0.18344 l -8.43844,25.63636 z"
           id="path9522" />
        <path
           d="m 200.15178,110.08698 6.74159,-13.712466 h 7.61294 l -10.82322,19.995436 v 12.74939 h -7.06261 V 116.59926 L 185.79726,96.374514 h 7.61294 z"
           id="path9524" />
        <path
           d="M 237.4827,129.11934 H 218.63379 V 96.374514 h 18.84891 v 5.686776 h -11.92388 v 7.20019 h 11.09838 v 5.68678 h -11.09838 v 8.43844 h 11.92388 z"
           id="path9526" />
        <path
           d="m 273.34606,129.11934 h -8.80534 l -14.2628,-24.76499 h -0.18344 q 0.0917,2.33891 0.18344,4.67783 0.13759,2.33891 0.22931,4.67783 v 15.40933 h -6.19125 V 96.374514 h 8.75947 l 14.21694,24.535686 h 0.13758 q -0.0459,-2.29305 -0.13758,-4.54025 -0.0917,-2.24719 -0.18344,-4.49438 V 96.374514 h 6.23711 z"
           id="path9528" />
      </g>
    </g>
  </g>
</svg>
